<?xml version="1.0" encoding="utf-8"?>
<!-- Generator: Adobe Illustrator 23.0.1, SVG Export Plug-In . SVG Version: 6.00 Build 0)  -->
<svg version="1.1" xmlns="http://www.w3.org/2000/svg" xmlns:xlink="http://www.w3.org/1999/xlink" x="0px" y="0px"
	 viewBox="0 0 225.84 229.55" style="enable-background:new 0 0 225.84 229.55;" xml:space="preserve">
<style type="text/css">
	.st0{fill:#33A02C;}
	.st1{fill:#F7F732;}
	.st2{fill:none;}
	.st3{fill:#FFFFFF;}
	.st4{font-family:'MyriadPro-Regular';}
	.st5{font-size:33px;}
	.st6{fill:#F71819;}
</style>
<g id="Layer_1">
	<circle class="st0" cx="115.09" cy="115.26" r="106.25"/>
</g>
<g id="Layer_2">
	<path class="st1" d="M20.66,166.4c27.66,51.75,92.04,71.28,143.79,43.62c28.52-15.24,47.24-41.63,53.69-70.92L11.3,90.5
		C5.11,115.2,7.71,142.18,20.66,166.4z"/>
	<rect x="18.18" y="101.14" class="st2" width="44.66" height="38.2"/>
	<text transform="matrix(1 0 0 1 18.1816 124.5662)" class="st3 st4 st5">PM</text>
	<rect x="168.45" y="100.14" class="st2" width="53.39" height="38.2"/>
	<text transform="matrix(1 0 0 1 168.4536 123.5662)" class="st3 st4 st5">AM</text>
</g>
<g id="Layer_3">
	<path class="st6" d="M17.93,161.21c10.81,23.05,29.88,42.32,55.23,52.9c29.99,12.53,62.45,10.27,89.3-3.42l-48.11-96.46
		L17.93,161.21z"/>
</g>
</svg>
