<?xml version="1.0" encoding="utf-8"?>
<!-- Generator: Adobe Illustrator 23.0.1, SVG Export Plug-In . SVG Version: 6.00 Build 0)  -->
<svg version="1.1" id="Layer_1" xmlns="http://www.w3.org/2000/svg" xmlns:xlink="http://www.w3.org/1999/xlink" x="0px" y="0px"
	 viewBox="0 0 136 229.6" style="enable-background:new 0 0 136 229.6;" xml:space="preserve">
<style type="text/css">
	.st0{fill:#CCCCCC;}
</style>
<g>
	<path class="st0" d="M117.1,82.9L117.1,82.9c-6.9,0-12.5-5.6-12.5-12.5V22.5c0-6.9,5.6-12.5,12.5-12.5l0,0
		c6.9,0,12.5,5.6,12.5,12.5v48C129.6,77.4,123.9,82.9,117.1,82.9z"/>
	<path class="st0" d="M117.1,221.5L117.1,221.5c-6.9,0-12.5-5.6-12.5-12.5v-51.1c0-6.9,5.6-12.5,12.5-12.5l0,0
		c6.9,0,12.5,5.6,12.5,12.5V209C129.6,215.9,123.9,221.5,117.1,221.5z"/>
	<path class="st0" d="M95,93.3L95,93.3c-5.7,3.8-13.5,2.3-17.3-3.4L50.4,49.2c-3.8-5.7-2.3-13.5,3.5-17.3l0,0
		c5.7-3.8,13.5-2.3,17.3,3.5L98.4,76C102.3,81.7,100.7,89.5,95,93.3z"/>
	<path class="st0" d="M39.3,191L39.3,191c-4.9-4.9-4.9-12.8,0-17.7l34.6-34.6c4.9-4.9,12.8-4.9,17.7,0l0,0c4.9,4.9,4.9,12.8,0,17.7
		L57,191C52.1,195.9,44.2,195.9,39.3,191z"/>
	<path class="st0" d="M8.8,114.8L8.8,114.8c0-6.9,5.6-12.5,12.5-12.5h48.9c6.9,0,12.5,5.6,12.5,12.5l0,0c0,6.9-5.6,12.5-12.5,12.5
		H21.3C14.4,127.3,8.8,121.7,8.8,114.8z"/>
</g>
</svg>
